<?xml version="1.0" standalone="no"?>
<!DOCTYPE svg PUBLIC "-//W3C//DTD SVG 20010904//EN"
 "http://www.w3.org/TR/2001/REC-SVG-20010904/DTD/svg10.dtd">
<svg version="1.0" xmlns="http://www.w3.org/2000/svg"
 width="180.000000pt" height="180.000000pt" viewBox="0 0 180.000000 180.000000"
 preserveAspectRatio="xMidYMid meet">
<metadata>
Created by potrace 1.14, written by Peter Selinger 2001-2017
</metadata>
<g transform="translate(0.000000,180.000000) scale(0.100000,-0.100000)"
fill="#000000" stroke="none">
<path d="M809 1616 c-2 -2 -22 -6 -45 -9 -58 -8 -169 -51 -239 -94 -74 -44
-198 -170 -244 -246 -18 -31 -47 -96 -64 -144 -29 -82 -31 -97 -31 -223 1
-119 4 -145 27 -215 38 -115 91 -199 182 -290 93 -93 177 -145 295 -183 74
-23 101 -26 215 -26 119 0 137 3 218 31 249 88 422 279 481 534 21 92 15 256
-13 349 -70 230 -237 403 -468 483 -73 25 -107 31 -199 33 -61 2 -113 2 -115
0z m241 -440 c147 -29 319 -94 349 -129 33 -40 2 -107 -49 -107 -15 0 -60 15
-101 34 -84 38 -202 71 -304 84 -86 12 -283 7 -349 -8 -26 -6 -72 -13 -101
-16 -47 -5 -54 -4 -69 17 -20 29 -20 58 -1 86 13 19 34 26 120 40 17 3 50 9
75 13 71 12 347 3 430 -14z m-94 -222 c99 -18 191 -48 268 -86 88 -44 103 -64
80 -109 -20 -41 -45 -40 -131 2 -120 60 -223 83 -378 83 -71 1 -146 -2 -165
-6 -108 -20 -130 -21 -149 -4 -11 10 -18 25 -16 34 2 9 4 23 4 30 2 22 64 43
171 58 25 3 47 8 48 9 10 9 199 1 268 -11z m34 -239 c78 -19 108 -30 178 -63
61 -29 78 -52 60 -82 -20 -32 -43 -33 -96 -6 -153 77 -302 97 -494 65 -116
-20 -138 -15 -138 31 0 27 12 42 35 46 6 1 28 5 50 8 22 4 58 10 80 13 22 3
41 7 43 8 10 9 228 -6 282 -20z"/>
</g>
</svg>
